HIERARCHY
ROOT root
{
	OFFSET	0	13.1	24.9
	CHANNELS 6  Xposition Yposition Zposition Xrotation Yrotation Zrotation
	JOINT spine_1
	{
		OFFSET	0	9.99999	0
		CHANNELS 3  Xrotation Yrotation Zrotation
		JOINT spine_2
		{
			OFFSET	0	112	-10
			CHANNELS 3  Xrotation Yrotation Zrotation
			JOINT spine_3
			{
				OFFSET	0	206.5	19.3
				CHANNELS 3  Xrotation Yrotation Zrotation
				JOINT spine_4
				{
					OFFSET	0	110.4	14.6
					CHANNELS 3  Xrotation Yrotation Zrotation
					JOINT neck_1
					{
						OFFSET	0	71.8	-50.3
						CHANNELS 3  Xrotation Yrotation Zrotation
						JOINT neck_2
						{
							OFFSET	0	86.2	-25.8
							CHANNELS 3  Xrotation Yrotation Zrotation
							JOINT head_ee
							{
								OFFSET	0	179.8	-8.7
								CHANNELS 3  Xrotation Yrotation Zrotation
								End Site
								{
									OFFSET	1	0	0
								}
							}
						}
					}
					JOINT left_clavicle
					{
						OFFSET	-43.2	22.4	-70.8
						CHANNELS 3  Xrotation Yrotation Zrotation
						JOINT left_shoulder
						{
							OFFSET	-93.9	-5.79999	48.7
							CHANNELS 3  Xrotation Yrotation Zrotation
							JOINT left_elbow
							{
								OFFSET	-291.4	-30.8	15.2
								CHANNELS 3  Xrotation Yrotation Zrotation
								JOINT left_lowarm_twist
								{
									OFFSET	-110.7	-3.89999	13.6
									CHANNELS 3  Xrotation Yrotation Zrotation
									JOINT left_hand
									{
										OFFSET	-110.7	-3.89999	13.6
										CHANNELS 3  Xrotation Yrotation Zrotation
										JOINT left_ee
										{
											OFFSET	-80.8	-5.10001	12.1
											CHANNELS 3  Xrotation Yrotation Zrotation
											End Site
											{
												OFFSET	1	0	0
											}
										}
									}
								}
							}
						}
					}
					JOINT right_clavicle
					{
						OFFSET	43.2	22.4	-70.8
						CHANNELS 3  Xrotation Yrotation Zrotation
						JOINT right_shoulder
						{
							OFFSET	93.9	-5.79999	48.7
							CHANNELS 3  Xrotation Yrotation Zrotation
							JOINT right_elbow
							{
								OFFSET	291.4	-30.8	15.2
								CHANNELS 3  Xrotation Yrotation Zrotation
								JOINT right_lowarm_twist
								{
									OFFSET	110.7	-3.89999	13.6
									CHANNELS 3  Xrotation Yrotation Zrotation
									JOINT right_hand
									{
										OFFSET	110.7	-3.89999	13.6
										CHANNELS 3  Xrotation Yrotation Zrotation
										JOINT right_ee
										{
											OFFSET	80.8	-5.10001	12.1
											CHANNELS 3  Xrotation Yrotation Zrotation
											End Site
											{
												OFFSET	1	0	0
											}
										}
									}
								}
							}
						}
					}
				}
			}
		}
	}
	JOINT left_hip
	{
		OFFSET	-82.8	-127.5	0.300001
		CHANNELS 3  Xrotation Yrotation Zrotation
		JOINT left_knee
		{
			OFFSET	-28.2	-396.7	2.2
			CHANNELS 3  Xrotation Yrotation Zrotation
			JOINT left_ankle
			{
				OFFSET	-11.7	-411.3	35.4
				CHANNELS 3  Xrotation Yrotation Zrotation
				JOINT left_toes
				{
					OFFSET	0	-60	-88.6
					CHANNELS 3  Xrotation Yrotation Zrotation
					JOINT left_foot_ee
					{
						OFFSET	-22.5	-16.5	-42.2
						CHANNELS 3  Xrotation Yrotation Zrotation
						End Site
						{
							OFFSET	1	0	0
						}
					}
				}
			}
		}
	}
	JOINT right_hip
	{
		OFFSET	82.8	-127.5	0.300001
		CHANNELS 3  Xrotation Yrotation Zrotation
		JOINT right_knee
		{
			OFFSET	28.2	-396.7	2.2
			CHANNELS 3  Xrotation Yrotation Zrotation
			JOINT right_ankle
			{
				OFFSET	11.7	-411.3	35.4
				CHANNELS 3  Xrotation Yrotation Zrotation
				JOINT right_toes
				{
					OFFSET	0	-60	-88.6
					CHANNELS 3  Xrotation Yrotation Zrotation
					JOINT right_foot_ee
					{
						OFFSET	22.5	-16.5	-42.2
						CHANNELS 3  Xrotation Yrotation Zrotation
						End Site
						{
							OFFSET	1	0	0
						}
					}
				}
			}
		}
	}
}
MOTION
Frames: 14
Frame Time: 0.02
2800.94 716.97 -1473.77 31.1814394014 76.9246109962 -33.7161356087 -1.15742 0.301242 1.71804 -1.1558 0.191326 1.73372 -1.14859 -0.212116 1.7313 -1.15276 0.0639293 1.74307 -20.0702 15.8359 -10.4319 -21.9381 35.6984 -2.30698 -0.0 0.0 -0.0 -0.503904 16.8485 1.19377 17.7806 -37.4566 62.503 2.88598 -55.0172 1.50313 28.4677 0.111168 -3.59765 -1.70864 13.345 -5.23829 -0.0 0.0 -0.0 10.2242 4.59857 -20.2922 -30.9726 14.9931 -60.9061 0.480036 13.3764 -0.0562916 -2.02951 0.0759151 -0.248029 7.47996 26.3936 -39.3867 0.0 0.0 0.0 -30.264 14.0884 7.57599 -6.40166 0.210146 0.959482 33.3178 -10.2211 -4.40132 -38.5182 0.0 0.0 -0.0 0.0 -0.0 24.6842 8.85879 -3.87646 1.21673 0.0520128 0.179463 -3.06138 8.79527 -0.472493 -25.0651 0.0 0.0 0.0 0.0 0.0 
2708.21063342 703.258 -1482.45697147 45.3561802358 80.5723089338 -48.7714341249 -1.35142 0.324215 1.82625 -1.34959 0.207369 1.84318 -1.34121 -0.227845 1.84076 -1.34593 0.0656762 1.85364 -17.5377 15.591 -11.3509 -18.9335 36.1069 -4.19753 -0.0 0.0 -0.0 -1.98875 17.527 -1.00275 6.99785 -37.9837 62.3413 2.9223 -55.3529 1.53295 28.5749 0.108197 -3.61103 -1.36026 12.815 -3.29063 -0.0 0.0 -0.0 10.8774 5.6101 -21.7242 -26.3562 16.4489 -59.5705 0.61937 17.0571 -0.0928817 -0.368119 0.0131158 -0.0451826 7.55184 26.4349 -39.9208 0.0 0.0 0.0 -30.3822 14.1238 6.03068 -6.74322 0.21833 1.01126 33.5388 -10.4169 -4.42812 -38.7343 0.0 0.0 -0.0 0.0 -0.0 24.2021 8.88871 -3.21487 -6.35358 -0.208969 -0.952199 -8.27829 11.8652 -1.31463 -24.8159 0.0 0.0 0.0 0.0 0.0 
2708.41034106 703.258 -1484.3747686 40.6986371267 79.7044281467 -44.0442542384 -1.35142 0.324215 1.82625 -1.34959 0.207369 1.84318 -1.34121 -0.227845 1.84076 -1.34593 0.0656762 1.85364 -17.5377 15.591 -11.3509 -18.9335 36.1069 -4.19753 -0.0 0.0 -0.0 -1.98875 17.527 -1.00275 6.99785 -37.9837 62.3413 2.9223 -55.3529 1.53295 28.5749 0.108197 -3.61103 -1.36026 12.815 -3.29063 -0.0 0.0 -0.0 10.8774 5.6101 -21.7242 -26.3562 16.4489 -59.5705 0.61937 17.0571 -0.0928817 -0.368119 0.0131158 -0.0451826 7.55184 26.4349 -39.9208 0.0 0.0 0.0 -30.3822 14.1238 6.03068 -6.74322 0.21833 1.01126 33.5388 -10.4169 -4.42812 -38.7343 0.0 0.0 -0.0 0.0 -0.0 24.2021 8.88871 -3.21487 -6.35358 -0.208969 -0.952199 -8.27829 11.8652 -1.31463 -24.8159 0.0 0.0 0.0 0.0 0.0 
2684.10833328 704.917 -1488.21029613 47.1558445213 80.1880565756 -50.5756098566 -1.40999 0.297448 1.86778 -1.40807 0.178015 1.88292 -1.40044 -0.267607 1.87229 -1.40533 0.0313895 1.89105 -17.4285 15.5174 -11.4008 -18.7892 36.0103 -4.32119 -0.0 0.0 -0.0 -2.47081 17.2656 -1.79324 3.967 -38.0623 62.2081 2.86019 -54.7755 1.48203 28.6149 0.107083 -3.61601 -1.27896 14.0165 -2.2354 -0.0 0.0 -0.0 11.2911 5.76956 -22.6309 -24.6579 17.1638 -59.1531 0.673937 18.4616 -0.109527 -0.128005 0.00452793 -0.0157205 7.47127 26.218 -39.471 0.0 0.0 0.0 -30.5968 14.3439 5.02728 -9.52162 0.273401 1.43402 35.7274 -8.99493 -4.61403 -38.271 0.0 0.0 -0.0 0.0 -0.0 24.0218 8.83018 -3.39237 -10.1402 -0.282867 -1.52846 -5.73806 12.9157 -0.913494 -24.1065 0.0 0.0 0.0 0.0 0.0 
2684.34404144 704.917 -1490.00400591 43.6430621109 79.5694872016 -47.0073854348 -1.40999 0.297448 1.86778 -1.40807 0.178015 1.88292 -1.40044 -0.267607 1.87229 -1.40533 0.0313895 1.89105 -17.4285 15.5174 -11.4008 -18.7892 36.0103 -4.32119 -0.0 0.0 -0.0 -2.47081 17.2656 -1.79324 3.967 -38.0623 62.2081 2.86019 -54.7755 1.48203 28.6149 0.107083 -3.61601 -1.27896 14.0165 -2.2354 -0.0 0.0 -0.0 11.2911 5.76956 -22.6309 -24.6579 17.1638 -59.1531 0.673937 18.4616 -0.109527 -0.128005 0.00452793 -0.0157205 7.47127 26.218 -39.471 0.0 0.0 0.0 -30.5968 14.3439 5.02728 -9.52162 0.273401 1.43402 35.7274 -8.99493 -4.61403 -38.271 0.0 0.0 -0.0 0.0 -0.0 24.0218 8.83018 -3.39237 -10.1402 -0.282867 -1.52846 -5.73806 12.9157 -0.913494 -24.1065 0.0 0.0 0.0 0.0 0.0 
2660.0810271 704.654 -1496.78241084 45.2591648153 80.752304301 -48.7685618828 -1.31893 0.320095 1.93169 -1.31688 0.196552 1.94814 -1.30833 -0.261727 1.94046 -1.31359 0.0479565 1.95744 -13.9699 16.2577 -11.0576 -14.8541 37.6557 -4.98626 -0.0 0.0 -0.0 -2.33105 17.8507 -1.47323 0.35545 -38.8002 60.2499 2.664 -52.8372 1.32368 28.7604 0.103002 -3.63415 -0.674976 15.4561 2.14096 -0.0 0.0 -0.0 11.2816 5.0838 -22.5894 -24.6862 17.3424 -59.5149 0.72455 19.7441 -0.126092 -0.117858 0.00416752 -0.0144748 7.6109 26.4575 -40.3719 0.0 0.0 0.0 -29.4156 14.2025 3.84914 -11.1396 0.296005 1.68125 36.9956 -8.85137 -4.73127 -37.545 0.0 0.0 -0.0 0.0 -0.0 23.4381 8.75263 -3.70127 -12.8335 -0.312178 -1.94064 0.108724 10.9483 0.01686 -21.252 0.0 0.0 0.0 0.0 0.0 
2636.45941104 704.903 -1492.62333543 56.0858969925 80.1844023081 -59.5279567292 -1.48629 0.413519 1.95271 -1.48421 0.28845 1.97505 -1.47216 -0.184238 1.98748 -1.47764 0.131895 1.99164 -14.1569 14.3867 -10.8181 -14.814 33.9479 -5.43619 -0.0 0.0 -0.0 -2.9681 18.2667 -2.37077 -1.66669 -39.2791 61.1051 2.43012 -50.276 1.14045 28.1578 0.119608 -3.55897 -0.876946 17.3846 1.72393 -0.0 0.0 -0.0 11.3062 6.08689 -22.6725 -24.27 18.0259 -59.3781 0.746199 20.2866 -0.133502 -1.04423 0.0379614 -0.127948 7.83665 26.1408 -42.4923 0.0 0.0 0.0 -27.6421 13.5363 2.97792 -17.2181 0.318383 2.61317 40.1446 -6.34442 -4.96559 -39.7414 0.0 0.0 -0.0 0.0 -0.0 21.1759 8.76864 -3.39785 -16.2101 -0.321512 -2.45855 8.33666 14.0884 1.28583 -22.9385 0.0 0.0 0.0 0.0 0.0 
2636.49629387 704.903 -1492.94237376 55.5561379117 80.1219612325 -58.9902770042 -1.48629 0.413519 1.95271 -1.48421 0.28845 1.97505 -1.47216 -0.184238 1.98748 -1.47764 0.131895 1.99164 -14.1569 14.3867 -10.8181 -14.814 33.9479 -5.43619 -0.0 0.0 -0.0 -2.9681 18.2667 -2.37077 -1.66669 -39.2791 61.1051 2.43012 -50.276 1.14045 28.1578 0.119608 -3.55897 -0.876946 17.3846 1.72393 -0.0 0.0 -0.0 11.3062 6.08689 -22.6725 -24.27 18.0259 -59.3781 0.746199 20.2866 -0.133502 -1.04423 0.0379614 -0.127948 7.83665 26.1408 -42.4923 0.0 0.0 0.0 -27.6421 13.5363 2.97792 -17.2181 0.318383 2.61317 40.1446 -6.34442 -4.96559 -39.7414 0.0 0.0 -0.0 0.0 -0.0 21.1759 8.76864 -3.39785 -16.2101 -0.321512 -2.45855 8.33666 14.0884 1.28583 -22.9385 0.0 0.0 0.0 0.0 0.0 
2613.4722409 705.471 -1492.81493895 59.1803286488 80.6348023492 -62.9693984807 -1.48808 0.523246 1.97282 -1.486 0.396676 2.0021 -1.46985 -0.0852659 2.03923 -1.47558 0.237794 2.02711 -14.3648 14.8772 -10.2679 -15.1361 34.5271 -4.63888 -0.0 0.0 -0.0 -3.15659 18.9844 -2.51497 -3.72518 -39.5308 60.7379 2.08265 -45.8879 0.881706 27.4155 0.138975 -3.46613 -0.0147855 17.8397 7.15645 -0.0 0.0 -0.0 11.4394 6.78837 -22.9825 -23.0848 19.52 -59.15 0.840474 22.604 -0.167977 -0.02808 0.000990207 -0.00344944 7.85769 25.5041 -43.2587 0.0 0.0 0.0 -23.7688 13.5235 1.80065 -26.2322 0.169842 3.98698 39.6145 -2.60736 -4.86691 -37.8774 0.0 0.0 -0.0 0.0 -0.0 19.5342 8.6748 -3.49704 -15.2613 -0.321973 -2.31298 8.97303 13.754 1.37745 -24.0888 0.0 0.0 0.0 0.0 0.0 
2572.62512819 708.002 -1484.16585068 93.805082063 81.9442557875 -98.0744755448 -1.32985 0.608933 2.05137 -1.32763 0.477195 2.08594 -1.30783 -0.020617 2.1397 -1.31408 0.317491 2.11613 -12.4195 13.6158 -10.1173 -12.7662 32.2236 -5.62802 -0.0 0.0 -0.0 -3.91275 20.9444 -3.22054 -5.41757 -40.5563 61.8813 1.752 -40.9506 0.654229 25.5254 0.182844 -3.22868 0.395595 20.4242 10.6098 -0.0 0.0 -0.0 10.9284 7.26473 -21.8668 -19.7089 20.3908 -60.2869 1.0884 28.3309 -0.274716 1.14974 -0.0390886 0.141638 8.22884 26.0201 -45.9169 0.0 0.0 0.0 -16.8001 12.4793 -0.243738 -40.4913 -0.498316 6.06691 39.7204 0.391859 -4.84906 -35.974 0.0 0.0 -0.0 0.0 -0.0 16.5634 8.56878 -3.41178 -16.5979 -0.320631 -2.51804 18.7778 9.12446 2.68635 -21.9729 0.0 0.0 0.0 0.0 0.0 
2572.72669795 708.002 -1486.1975165 90.1995208728 81.9620824795 -94.4330849864 -1.32985 0.608933 2.05137 -1.32763 0.477195 2.08594 -1.30783 -0.020617 2.1397 -1.31408 0.317491 2.11613 -12.4195 13.6158 -10.1173 -12.7662 32.2236 -5.62802 -0.0 0.0 -0.0 -3.91275 20.9444 -3.22054 -5.41757 -40.5563 61.8813 1.752 -40.9506 0.654229 25.5254 0.182844 -3.22868 0.395595 20.4242 10.6098 -0.0 0.0 -0.0 10.9284 7.26473 -21.8668 -19.7089 20.3908 -60.2869 1.0884 28.3309 -0.274716 1.14974 -0.0390886 0.141638 8.22884 26.0201 -45.9169 0.0 0.0 0.0 -16.8001 12.4793 -0.243738 -40.4913 -0.498316 6.06691 39.7204 0.391859 -4.84906 -35.974 0.0 0.0 -0.0 0.0 -0.0 16.5634 8.56878 -3.41178 -16.5979 -0.320631 -2.51804 18.7778 9.12446 2.68635 -21.9729 0.0 0.0 0.0 0.0 0.0 
2557.88388493 712.001 -1485.35829697 98.1685764296 82.4994469445 -102.237284509 -1.23946 0.587336 2.3328 -1.23654 0.437747 2.36542 -1.21554 -0.120118 2.40256 -1.2235 0.260717 2.3914 -11.0762 12.9208 -11.175 -11.1391 31.7071 -7.33412 -0.0 0.0 -0.0 -4.50759 21.5121 -3.95211 -5.94561 -41.1772 62.0822 1.51022 -36.7984 0.502386 25.1464 0.190696 -3.1809 0.525202 22.458 12.0999 -0.0 0.0 -0.0 10.7695 7.36187 -21.5199 -17.9428 20.766 -60.7727 1.20473 30.827 -0.332153 1.55821 -0.0522896 0.19214 8.28722 25.2629 -47.1915 0.0 0.0 0.0 -14.2734 12.1593 -0.787945 -42.3825 -0.625259 6.32855 38.4054 1.37819 -4.72729 -37.0127 0.0 0.0 -0.0 0.0 -0.0 15.2986 8.33891 -3.82619 -15.7759 -0.322023 -2.39193 19.2206 7.42323 2.72135 -22.5537 0.0 0.0 0.0 0.0 0.0 
2558.35813564 712.001 -1492.86457466 84.6489168475 82.5432960491 -88.6027210381 -1.23946 0.587336 2.3328 -1.23654 0.437747 2.36542 -1.21554 -0.120118 2.40256 -1.2235 0.260717 2.3914 -11.0762 12.9208 -11.175 -11.1391 31.7071 -7.33412 -0.0 0.0 -0.0 -4.50759 21.5121 -3.95211 -5.94561 -41.1772 62.0822 1.51022 -36.7984 0.502386 25.1464 0.190696 -3.1809 0.525202 22.458 12.0999 -0.0 0.0 -0.0 10.7695 7.36187 -21.5199 -17.9428 20.766 -60.7727 1.20473 30.827 -0.332153 1.55821 -0.0522896 0.19214 8.28722 25.2629 -47.1915 0.0 0.0 0.0 -14.2734 12.1593 -0.787945 -42.3825 -0.625259 6.32855 38.4054 1.37819 -4.72729 -37.0127 0.0 0.0 -0.0 0.0 -0.0 15.2986 8.33891 -3.82619 -15.7759 -0.322023 -2.39193 19.2206 7.42323 2.72135 -22.5537 0.0 0.0 0.0 0.0 0.0 
2540.17346319 715.213 -1496.70864083 87.0518858879 82.6160054783 -90.9527901597 -1.005 0.614106 2.57444 -1.00143 0.4491 2.60826 -0.977715 -0.154179 2.64213 -0.987359 0.264882 2.63334 -9.8878 12.1063 -12.9342 -9.63537 31.463 -9.7218 -0.0 0.0 -0.0 -5.25623 21.9059 -4.93408 -5.81245 -41.8629 63.1146 1.19216 -30.5633 0.325739 24.8898 0.195833 -3.14852 0.545475 23.0895 12.4359 -0.0 0.0 -0.0 10.7574 6.13769 -21.4747 -13.1282 21.5258 -60.9282 1.17059 30.1073 -0.314844 0.773395 -0.0266073 0.0951909 8.09395 23.8105 -46.9153 0.0 0.0 0.0 -11.8912 11.5188 -1.31626 -44.807 -0.800553 6.6577 36.434 1.81987 -4.54437 -36.9849 0.0 0.0 -0.0 0.0 -0.0 11.8272 8.92228 -4.63474 -11.3025 -0.297893 -1.70617 22.1575 6.62874 3.08 -24.1412 0.0 0.0 0.0 0.0 0.0 
